<?xml version="1.0" encoding="UTF-8" standalone="no" ?>
<!DOCTYPE svg PUBLIC "-//W3C//DTD SVG 1.1//EN" "http://www.w3.org/Graphics/SVG/1.1/DTD/svg11.dtd">
<svg xmlns="http://www.w3.org/2000/svg" xmlns:xlink="http://www.w3.org/1999/xlink" version="1.1" width="1080" height="1080" viewBox="0 0 1080 1080" xml:space="preserve">
<desc>Created with Fabric.js 5.2.4</desc>
<defs>
</defs>
<rect x="0" y="0" width="100%" height="100%" fill="transparent"></rect>
<g transform="matrix(1 0 0 1 540 540)" id="773540b2-5f93-4a2c-b862-4ee58dfd003c"  >
<rect style="stroke: none; stroke-width: 1; stroke-dasharray: none; stroke-linecap: butt; stroke-dashoffset: 0; stroke-linejoin: miter; stroke-miterlimit: 4; fill: rgb(0,0,0); fill-rule: nonzero; opacity: 1; visibility: hidden;" vector-effect="non-scaling-stroke"  x="-540" y="-540" rx="0" ry="0" width="1080" height="1080" />
</g>
<g transform="matrix(1 0 0 1 540 540)" id="5b967a42-16d0-450f-a91f-c58473177c0c"  >
</g>
<g transform="matrix(0 0 0 0 0 0)"  >
<g style=""   >
</g>
</g>
<g transform="matrix(0 0 0 0 0 0)"  >
<g style=""   >
</g>
</g>
<g transform="matrix(0 0 0 0 0 0)"  >
<g style=""   >
</g>
</g>
<g transform="matrix(1 0 0 1 540 540)"  >
<path style="stroke: rgb(0,0,0); stroke-width: 0; stroke-dasharray: none; stroke-linecap: butt; stroke-dashoffset: 0; stroke-linejoin: miter; stroke-miterlimit: 4; fill: rgb(255,255,255); fill-rule: nonzero; opacity: 1;" vector-effect="non-scaling-stroke"  transform=" translate(-480, 473)" d="M 380 -334 L 580 -334 L 580 -394 L 468 -394 L 580 -520 L 580 -574 L 380 -574 L 380 -514 L 494 -514 L 380 -386 L 380 -334 Z M 480 -80 Q 405 -80 339.5 -108.5 Q 274 -137 225.5 -185.5 Q 177 -234 148.5 -299.5 Q 120 -365 120 -440 Q 120 -515 148.5 -580.5 Q 177 -646 225.5 -694.5 Q 274 -743 339.5 -771.5 Q 405 -800 480 -800 Q 555 -800 620.5 -771.5 Q 686 -743 734.5 -694.5 Q 783 -646 811.5 -580.5 Q 840 -515 840 -440 Q 840 -365 811.5 -299.5 Q 783 -234 734.5 -185.5 Q 686 -137 620.5 -108.5 Q 555 -80 480 -80 Z M 480 -440 Z M 224 -866 L 280 -810 L 110 -640 L 54 -696 L 224 -866 Z M 736 -866 L 906 -696 L 850 -640 L 680 -810 L 736 -866 Z M 480 -160 Q 597 -160 678.5 -241.5 Q 760 -323 760 -440 Q 760 -557 678.5 -638.5 Q 597 -720 480 -720 Q 363 -720 281.5 -638.5 Q 200 -557 200 -440 Q 200 -323 281.5 -241.5 Q 363 -160 480 -160 Z" stroke-linecap="round" />
</g>
<g transform="matrix(7.65 0 0 7.65 567.85 567.85)" id="73a02f0c-46ea-4d3a-845a-d5680a134d51"  >
<path style="stroke: rgb(0,0,0); stroke-width: 0; stroke-dasharray: none; stroke-linecap: butt; stroke-dashoffset: 0; stroke-linejoin: miter; stroke-miterlimit: 4; fill: rgb(255,255,255); fill-rule: nonzero; opacity: 1;" vector-effect="non-scaling-stroke"  transform=" translate(-50, -50)" d="M 16.28 19.945 L 19.957 16.32 C 22.060000000000002 14.166 25.578000000000003 14.166 27.681 16.32 L 50.007000000000005 38.595 L 72.333 16.32 C 74.43599999999999 14.166 77.954 14.166 80.054 16.32 L 83.68 19.945 C 85.834 22.046 85.834 25.566000000000003 83.68 27.668 L 61.405 49.993 L 83.68 72.32 C 85.834 74.422 85.834 77.939 83.68 80.04299999999999 L 80.054 83.72099999999999 C 77.95400000000001 85.82 74.436 85.82 72.333 83.72099999999999 L 50.007 61.393 L 27.681 83.721 C 25.578 85.82000000000001 22.060000000000002 85.82000000000001 19.957 83.721 L 16.28 80.043 C 14.180000000000001 77.93900000000001 14.180000000000001 74.42200000000001 16.28 72.32000000000001 L 38.606 49.99300000000001 L 16.28 27.667 C 14.18 25.566 14.18 22.046 16.28 19.945 z" stroke-linecap="round" />
</g>
</svg>