<?xml version="1.0" encoding="utf-8"?>
<!-- Uploaded to: SVG Repo, www.svgrepo.com, Generator: SVG Repo Mixer Tools -->
<!DOCTYPE svg PUBLIC "-//W3C//DTD SVG 1.1//EN" "http://www.w3.org/Graphics/SVG/1.1/DTD/svg11.dtd">
<svg fill="#000000" width="800px" height="800px" viewBox="0 0 1000 1000" version="1.1" xmlns="http://www.w3.org/2000/svg" xmlns:xlink="http://www.w3.org/1999/xlink"  enable-background="new 0 0 1000 1000" xml:space="preserve">

<g>
<g transform="translate(0.000000,511.000000) scale(0.100000,-0.100000)">
<path d="M3362,4272.5C3129.4,3869,2934.6,3541,2928.7,3547c-6,4-47.7,153.1-95.4,330s-91.4,326-93.4,330c-15.9,15.9-314.1-79.5-314.1-99.4c0-31.8,316.1-1208.6,328-1220.5c9.9-9.9,1222.5,306.1,1238.4,324c9.9,9.9-51.7,260.4-73.5,300.2c-7.9,15.9-113.3-6-337.9-65.6c-178.9-47.7-328-83.5-334-77.5c-4,4,178.9,335.9,409.5,733.5c230.6,399.6,419.4,731.5,419.4,737.5c0,9.9-266.4,171-282.3,171C3789.4,5010,3596.6,4678,3362,4272.5z"/>
<path d="M5000,2813.4l-318.1-184.9L4672,853.4l-9.9-1777.1l-254.4,443.3L4151.2-39.1h-391.6H3368L3171.2-379c-151.1-264.4-190.8-347.9-174.9-373.7c9.9-17.9,165-284.3,341.9-594.4l324-562.5l97.4-471.1l95.4-469.1l578.5-578.4l576.5-576.5v-393.6V-4790h169h169v461.2v463.2l-588.4,588.4l-590.4,590.4l-93.4,453.2l-93.4,455.2l-302.1,518.8c-165,286.2-300.2,532.7-300.2,546.7c0,15.9,41.7,97.4,91.4,182.9l89.5,155l198.8-6l200.8-6l518.8-900.5l520.8-900.5l6,2311.8l6,2311.8l167,95.4l169,93.4l169-93.4l169-95.4V1030.4V-377h169h169v343.9v341.9l169,95.4c93.4,53.7,176.9,93.4,184.9,89.5c8-4,83.5-43.7,169-91.4l153.1-85.5V-31.1V-377h169h169v236.6V98.1l170.9,101.4l172.9,99.4l178.9-95.4l176.9-97.4l-2-224.6c-2-125.2-7.9-232.6-13.9-242.5c-6-7.9,71.6-15.9,169-15.9h180.9v174.9v172.9l163,89.5c89.5,49.7,170.9,87.5,180.9,83.5c9.9-2,89.5-45.7,174.9-95.4l157.1-91.5v-1017.8v-1019.8L8409.1-2983l-339.9-900.5v-220.6c-2-119.3,0-324,0-451.2l2-234.6h169h169v421.4v419.4l337.9,902.5l337.9,900.5v1149v1147l-341.9,196.8l-341.9,196.8l-91.4-53.7c-49.7-29.8-127.2-73.6-174.9-97.4l-85.5-41.7l-334,165l-334,167l-167-95.4l-165-95.4l-71.6,37.8c-37.8,21.9-190.8,111.3-341.9,200.8l-270.3,161l-167-95.4l-165-97.4l-9.9,966.1l-9.9,964.1l-324,186.9c-176.9,103.4-334,186.9-347.9,184.9C5330,3000.3,5174.9,2916.8,5000,2813.4z"/>
<path d="M1606.8,1821.5c-324-87.5-594.4-167-602.3-172.9c-11.9-13.9,41.7-252.5,67.6-294.2c11.9-17.9,93.4-4,349.9,65.6c184.9,49.7,337.9,87.5,339.9,85.5c2-2-188.8-334-421.4-739.5C1105.8,362.5,915,26.5,915,20.5c0-9.9,234.6-145.1,270.3-155c11.9-4,212.7,326,447.3,729.5c232.6,405.5,427.4,733.5,431.3,729.5c2-4,45.7-153.1,93.4-330c47.7-176.9,91.4-326,97.4-332c6-8,45.7-2,85.5,9.9c41.7,11.9,111.3,29.8,157,41.7l81.5,21.9l-127.2,471.1c-69.6,260.4-145.1,542.7-167,628.1c-23.8,83.5-51.7,153.1-65.6,151.1C2207.1,1984.5,1930.8,1911,1606.8,1821.5z"/>
</g>
</g>
</svg>